<svg xmlns="http://www.w3.org/2000/svg" width="512" height="512" viewBox="0 0 512 512" version="1.1">
	<path d="M 256 70.500 L 256 141 248.500 141 L 241 141 241 219.746 L 241 298.491 197.739 255.239 L 154.478 211.986 144.001 222.499 L 133.524 233.012 163.467 262.967 C 179.936 279.443, 193.206 293.092, 192.955 293.298 C 192.705 293.504, 189.800 295.182, 186.500 297.025 C 177.327 302.150, 168.118 311.946, 163.198 321.814 C 160.917 326.387, 158.762 332.314, 158.408 334.985 C 157.774 339.764, 157.664 339.891, 151.556 342.898 C 143.448 346.889, 134.938 355.797, 130.715 364.712 C 127.672 371.136, 127.500 372.119, 127.500 383.048 C 127.500 394.341, 127.582 394.762, 131.185 402.057 C 145.174 430.375, 180.805 436.793, 203.044 415 C 213.326 404.924, 218.370 389.919, 216.069 376.250 C 213.731 362.359, 204.509 349.305, 192.916 343.481 C 189.937 341.984, 187.362 340.638, 187.193 340.490 C 187.024 340.341, 187.864 338.140, 189.059 335.599 C 193.534 326.077, 204.786 319, 215.449 319 C 219.312 319, 220.118 319.586, 230.267 329.766 L 241 340.533 241 401.604 L 241 462.675 232.378 464.803 C 227.636 465.974, 219.198 469.035, 213.628 471.605 C 196.554 479.482, 190.723 481.186, 179 481.719 C 165.005 482.355, 157.285 480.606, 141.306 473.178 C 121.274 463.866, 108.867 461.263, 89.560 462.320 C 75.056 463.115, 65.992 465.561, 49.820 473.046 C 35.685 479.587, 27.161 481.954, 17.636 481.983 C 7.671 482.012, 0 488.544, -0 497 C -0 501.691, 3.636 507.427, 8.255 510.023 C 11.933 512.090, 13.099 512.229, 21.949 511.649 C 34.526 510.824, 45.129 508.048, 57.498 502.339 C 74.434 494.522, 80.295 492.814, 92 492.281 C 106.111 491.639, 114.137 493.459, 129.917 500.878 C 136.838 504.131, 144.975 507.489, 148 508.339 C 163.185 512.605, 185.251 512.922, 200.183 509.089 C 204.409 508.004, 213.857 504.343, 221.180 500.954 C 235.809 494.184, 243.886 492.026, 254.500 492.052 C 266.991 492.084, 275.925 494.325, 290.151 500.996 C 306.896 508.847, 315.130 511.003, 331.097 511.714 C 351.594 512.627, 362.928 510.221, 383.478 500.597 C 398.327 493.642, 402.623 492.602, 416.500 492.602 C 430.743 492.602, 435.467 493.786, 452.021 501.507 C 468.620 509.249, 476.910 511.351, 491.168 511.433 C 504.448 511.509, 506.696 510.585, 510.669 503.415 C 512.590 499.949, 514.003 490.663, 512.360 492.306 C 512.008 492.658, 510.996 491.528, 510.110 489.794 C 507.407 484.502, 504.142 482.865, 494.360 481.896 C 480.651 480.537, 476.739 479.424, 462.879 472.943 C 446.126 465.110, 437.772 462.937, 421.847 462.271 C 401.276 461.410, 390.195 463.771, 369.577 473.407 C 354.739 480.342, 350.367 481.398, 336.500 481.398 C 322.169 481.398, 317.369 480.186, 300.909 472.408 C 294.452 469.357, 285.266 465.949, 280.171 464.715 L 271.025 462.500 271.012 402.985 L 271 343.470 283.364 331.136 L 295.728 318.801 302.431 319.845 C 310.228 321.059, 316.577 324.450, 320.922 329.722 C 324.608 334.193, 326.888 340.204, 325.123 340.792 C 322.018 341.827, 311.628 349.608, 308.392 353.322 C 300.044 362.903, 295.682 377.680, 297.710 389.515 C 301.822 413.522, 321.471 429.251, 345.478 427.753 C 363.972 426.599, 378.963 414.889, 385.064 396.829 C 386.810 391.659, 387.133 388.758, 386.825 380.988 C 386.491 372.562, 386.040 370.622, 382.869 363.988 C 378.604 355.064, 371.562 347.644, 363.058 343.112 C 357.349 340.069, 357.092 339.760, 356.034 334.662 C 352.732 318.757, 341.061 303.763, 325.637 295.609 L 320.773 293.038 350.780 262.807 L 380.787 232.575 384.658 236.072 C 390.082 240.972, 399.545 246.541, 407.631 249.591 C 431.593 258.629, 457.816 256.055, 479.488 242.536 C 487.633 237.456, 505.978 220.085, 508.519 215.049 C 510.651 210.821, 510.728 202.298, 508.670 198.361 C 506.760 194.707, 487.912 176.293, 482 172.305 C 474.867 167.493, 467.794 164.229, 458.307 161.372 C 450.846 159.124, 447.513 158.705, 436.500 158.626 L 423.500 158.533 423.468 145.517 C 423.429 129.833, 421.318 121.191, 414.185 107.519 C 410.371 100.208, 407.366 96.332, 398.023 86.677 C 391.711 80.154, 385.320 74.183, 383.823 73.408 C 380.194 71.532, 371.604 71.620, 367.483 73.575 C 363.197 75.609, 345.572 93.806, 340.671 101.257 C 331.701 114.893, 327.837 128.189, 327.812 145.500 C 327.778 169.135, 334.809 185.638, 353.526 205.855 L 359.351 212.146 315.175 256.322 L 271 300.497 271 220.967 L 271 141.437 277.072 135.469 C 294.847 117.996, 302.800 100.819, 303.740 77.875 C 304.490 59.534, 301.273 46.487, 292.361 31.738 C 287.501 23.694, 268.757 4.306, 263.500 1.886 C 255.257 -1.910, 256 -8.708, 256 70.500 M 0.272 497 C 0.272 499.475, 0.467 500.488, 0.706 499.250 C 0.944 498.012, 0.944 495.988, 0.706 494.750 C 0.467 493.512, 0.272 494.525, 0.272 497" stroke="none" fill="black" fill-rule="evenodd"/>
</svg>