<?xml version="1.0" encoding="iso-8859-1"?>
<!-- Generator: Adobe Illustrator 19.0.0, SVG Export Plug-In . SVG Version: 6.00 Build 0)  -->
<svg version="1.1" id="Layer_1" xmlns="http://www.w3.org/2000/svg" xmlns:xlink="http://www.w3.org/1999/xlink" x="0px" y="0px"
	 viewBox="0 0 512 512" style="enable-background:new 0 0 512 512;" xml:space="preserve">
<g>
	<g>
		<path d="M304,84c18.8-11.6,35.2-32,35.2-67.2c0-1.2-0.4-2-1.2-2.8c-0.8-0.8-2-1.6-3.2-1.2c-16.4,1.6-36.4,9.2-53.6,25.6
			c-5.2-14.4-12.4-26-22.4-37.2c-1.6-1.6-4.4-1.6-6,0c-10.4,12-18.4,22.8-24,36.4c-16.4-15.2-33.2-23.2-51.6-25.2
			c-1.2,0-2.4,0.4-3.2,1.2c-0.8,0.8-1.2,2-1.2,2.8c0,35.2,16,55.6,33.6,67.2C86,88.4,0,166.4,0,270c0,114.4,109.6,242,256,242
			s256-127.2,256-242C512,166,425.2,88,304,84z"/>
	</g>
</g>
<g>
</g>
<g>
</g>
<g>
</g>
<g>
</g>
<g>
</g>
<g>
</g>
<g>
</g>
<g>
</g>
<g>
</g>
<g>
</g>
<g>
</g>
<g>
</g>
<g>
</g>
<g>
</g>
<g>
</g>
</svg>
